<svg height="480pt" viewBox="0 0 480.21089 480" width="480pt" xmlns="http://www.w3.org/2000/svg"><g fill="#231f20"><path d="m56 40.105469c0 4.417969-3.582031 8-8 8s-8-3.582031-8-8 3.582031-8 8-8 8 3.582031 8 8zm0 0"/><path d="m88 40.105469c0 4.417969-3.582031 8-8 8s-8-3.582031-8-8 3.582031-8 8-8 8 3.582031 8 8zm0 0"/><path d="m120 40.105469c0 4.417969-3.582031 8-8 8s-8-3.582031-8-8 3.582031-8 8-8 8 3.582031 8 8zm0 0"/><path d="m168 32.105469c-4.417969 0-8 3.582031-8 8s3.582031 8 8 8h200c4.417969 0 8-3.582031 8-8s-3.582031-8-8-8zm0 0"/><path d="m115.359375 392.105469h-99.359375v-312h352c4.417969 0 8-3.582031 8-8s-3.582031-8-8-8h-352v-48h376v99.359375c0 4.417968 3.582031 8 8 8s8-3.582032 8-8v-107.359375c0-4.417969-3.582031-8-8-8h-392c-4.417969 0-8 3.582031-8 8v392c0 4.417969 3.582031 8 8 8h107.359375c4.417969 0 8-3.582031 8-8s-3.582031-8-8-8zm0 0"/><path d="m477.679688 443.785156-44-43.679687 25.761718-17.199219c2.652344-1.734375 4.035156-4.871094 3.519532-8-.535157-3.117188-2.855469-5.625-5.921876-6.402344l-107.4375-28.558594c-2.75-.714843-5.667968.078126-7.675781 2.085938-2.007812 2.007812-2.800781 4.925781-2.085937 7.675781l28.160156 107.4375c.777344 3.066407 3.285156 5.386719 6.398438 5.921875 3.128906.515625 6.269531-.867187 8-3.519531l17.601562-25.761719 44 44c1.507812 1.496094 3.554688 2.332032 5.679688 2.320313 2.125.011719 4.171874-.824219 5.679687-2.320313l22.640625-22.640625c1.472656-1.542969 2.269531-3.613281 2.207031-5.746093-.058593-2.132813-.96875-4.152344-2.527343-5.613282zm-28.320313 17.039063-45.28125-45.277344c-1.488281-1.480469-3.5-2.3125-5.597656-2.320313h-.800781c-2.375.242188-4.515626 1.53125-5.839844 3.519532l-12.800782 19.121094-20.238281-76.960938 76.960938 20.238281-19.121094 12.960938c-1.988281 1.324219-3.277344 3.464843-3.519531 5.839843-.21875 2.371094.632812 4.71875 2.320312 6.398438l45.277344 45.28125zm0 0"/><path d="m332.480469 420.183594c-16.6875 6.929687-34.4375 10.960937-52.480469 11.921875v-72c11.828125.277343 23.632812 1.210937 35.359375 2.800781 4.417969.617188 8.503906-2.460938 9.121094-6.878906.617187-4.421875-2.460938-8.503906-6.878907-9.121094-12.472656-1.632812-25.027343-2.566406-37.601562-2.800781v-64h80c-.40625 12.546875-1.632812 25.054687-3.679688 37.441406-.730468 4.417969 2.261719 8.589844 6.679688 9.320313 4.417969.726562 8.589844-2.261719 9.320312-6.683594 2.125-13.261719 3.355469-26.652344 3.679688-40.078125h56c-.832031 18.019531-4.726562 35.765625-11.519531 52.480469-1.65625 4.0625.269531 8.707031 4.320312 10.398437.960938.410156 1.992188.628906 3.039063.640625 3.277344.003906 6.226562-1.992188 7.441406-5.039062 8.542969-21.117188 12.863281-43.703126 12.71875-66.480469.019531-41.296875-14.542969-81.273438-41.121094-112.878907-33.402344-39.960937-82.792968-63.074218-134.878906-63.121093h-5.761719c-38.847656 1.273437-76.195312 15.335937-106.238281 40-3.425781 2.804687-3.925781 7.855469-1.121094 11.28125 2.808594 3.421875 7.855469 3.925781 11.28125 1.117187 13.898438-11.433594 29.605469-20.464844 46.480469-26.71875-13.34375 14.519532-23.820313 31.429688-30.878906 49.839844-13.640625-3.871094-27.003907-8.652344-40-14.320312-3.171875-1.339844-6.847657-.503907-9.121094 2.082031 0 0-.402344 0-.5625.480469-25.882813 31.582031-40.019531 71.164062-40 112 .003906 40.914062 14.324219 80.535156 40.480469 112l.5625.636718c33.269531 40.195313 82.699218 63.503906 134.878906 63.601563 22.804688.015625 45.390625-4.441407 66.480469-13.121094 2.820312-.945313 4.882812-3.378906 5.351562-6.316406.472657-2.9375-.726562-5.894531-3.109375-7.675781-2.382812-1.78125-5.558594-2.089844-8.242187-.808594zm-68.480469 11.203125c-25.519531-4.082031-48-28-62.480469-63.203125 20.496094-4.820313 41.433594-7.53125 62.480469-8.078125zm0-87.28125c-22.9375.472656-45.761719 3.394531-68.078125 8.71875-7.371094-23.558594-11.386719-48.039063-11.921875-72.71875h80zm-151.601562-64h55.601562c.5 26.167969 4.703125 52.128906 12.480469 77.121093-11.855469 3.460938-23.5 7.601563-34.878907 12.398438-19.984374-25.730469-31.574218-56.980469-33.203124-89.519531zm229.601562-104c-20.34375 4.757812-41.117188 7.4375-62 8v-71.199219c25.28125 4.238281 47.519531 28.238281 62 63.199219zm-78 88h-80c.5-24.769531 4.542969-49.335938 12-72.960938 22.28125 5.402344 45.078125 8.40625 68 8.960938zm16-64c22.75-.488281 45.382812-3.386719 67.519531-8.640625 7.429688 23.519531 11.46875 47.980468 12 72.640625h-79.519531zm152 64h-56c-.476562-26.136719-4.652344-52.074219-12.398438-77.039063 12.023438-3.453125 23.832032-7.621094 35.359376-12.480468 19.925781 25.75 31.457031 57 33.039062 89.519531zm-44-102.320313c-9.761719 3.925782-19.722656 7.34375-29.839844 10.242188-7.015625-18.542969-17.554687-35.550782-31.039062-50.082032 22.925781 8.511719 43.609375 22.136719 60.480468 39.839844zm-124-48.960937v71.28125c-21.046875-.523438-41.980469-3.203125-62.480469-8 14.480469-35.28125 36.960938-59.199219 62.480469-63.28125zm-96 151.28125h-56c1.652344-32.507813 13.179688-63.734375 33.039062-89.519531 11.40625 4.796874 23.082032 8.9375 34.960938 12.398437-7.628906 25.011719-11.667969 50.976563-12 77.121094zm-11.601562 118.320312c9.609374-3.859375 19.410156-7.222656 29.363281-10.082031 7.035156 18.316406 17.457031 35.144531 30.71875 49.601562-22.777344-8.421874-43.328125-21.941406-60.082031-39.519531zm0 0"/><path d="m456.640625 195.144531c1.226563 2.988281 4.128906 4.945313 7.359375 4.960938 1.050781.027343 2.089844-.191407 3.039062-.640625 4.050782-1.695313 5.976563-6.335938 4.320313-10.398438-8.234375-19.90625-19.457031-38.4375-33.28125-54.960937-2.933594-2.625-7.34375-2.722657-10.394531-.234375-3.046875 2.492187-3.832032 6.835937-1.84375 10.234375 12.785156 15.359375 23.171875 32.570312 30.800781 51.039062zm0 0"/><path d="m105.839844 134.105469c-32.207032 38.777343-49.835938 87.59375-49.839844 138 0 4.417969 3.582031 8 8 8s8-3.582031 8-8c-.046875-46.75 16.285156-92.039063 46.160156-128 2.828125-3.402344 2.363282-8.453125-1.039062-11.28125s-8.453125-2.359375-11.28125 1.042969zm0 0"/></g></svg>