<svg xmlns="http://www.w3.org/2000/svg" width="24" height="24" viewBox="0 0 24 24"><path d="M9.279 13.52h-.939v5.027h-.908v-5.027h-.94v-.854h2.788v.854zm5.395 1.721v2.406c0 .537-.2.954-.736.954-.296 0-.541-.108-.767-.388v.333h-.813v-5.88h.813v1.893c.183-.222.429-.405.718-.405.59 0 .785.499.785 1.087zm-.83.049c0-.146-.027-.257-.086-.333-.098-.129-.279-.143-.42-.071l-.167.132v2.703l.19.153c.132.066.324.071.413-.045.046-.061.069-.161.069-.299v-2.24zm-2.347-5.859c.229 0 .354-.183.354-.431v-2.119c0-.255-.111-.434-.371-.434-.237 0-.353.185-.353.434v2.119c.001.24.137.431.37.431zm-.733 8.07c-.099.123-.317.325-.475.325-.172 0-.215-.118-.215-.292v-3.325h-.805v3.626c0 .88.597.885 1.031.636.16-.092.315-.227.464-.403v.479h.807v-4.338h-.807v3.292zm13.236-12.501v14c0 2.761-2.238 5-5 5h-14c-2.761 0-5-2.239-5-5v-14c0-2.761 2.239-5 5-5h14c2.762 0 5 2.239 5 5zm-10.566 4.427c0 .45.137.813.592.813.256 0 .611-.133.979-.569v.503h.847v-4.554h-.847v3.457c-.104.129-.333.341-.498.341-.182 0-.226-.124-.226-.307v-3.491h-.847v3.807zm-3.177-2.621v2.233c0 .803.419 1.22 1.24 1.22.682 0 1.218-.456 1.218-1.22v-2.233c0-.713-.531-1.224-1.218-1.224-.745 0-1.24.493-1.24 1.224zm-3.155-2.806l1.135 3.67v2.504h.953v-2.504l1.11-3.67h-.969l-.611 2.468-.658-2.468h-.96zm11.564 11.667c-.014-2.978-.232-4.116-2.111-4.245-1.734-.118-7.377-.118-9.109 0-1.876.128-2.098 1.262-2.111 4.245.014 2.978.233 4.117 2.111 4.245 1.732.118 7.375.118 9.109 0 1.877-.129 2.097-1.262 2.111-4.245zm-1.011-.292v1.104h-1.542v.818c0 .325.027.607.352.607.34 0 .36-.229.36-.607v-.301h.83v.326c0 .836-.358 1.342-1.208 1.342-.771 0-1.164-.561-1.164-1.342v-1.947c0-.753.497-1.275 1.225-1.275.773-.001 1.147.491 1.147 1.275zm-.83-.008c0-.293-.062-.508-.353-.508-.299 0-.359.21-.359.508v.439h.712v-.439z"/></svg>