<svg xmlns="http://www.w3.org/2000/svg" viewBox="0 0 100 100" width="500" height="500"><path fill="#c8ede6" d="M87.234,55.551c0.3-0.616,0.566-1.264,0.796-1.943c2.633-7.77-1.349-17.078-9.733-19.325 C77.391,22.9,69.391,15.09,60.356,13.758c-10.341-1.525-19.814,5.044-22.966,15.485c-3.799-1.346-7.501-1.182-10.99,0.857 c-1.583,0.732-3.031,1.812-4.33,3.233c-1.907,2.086-3.147,4.719-3.652,7.495c-0.748,0.118-1.483,0.236-2.176,0.484 c-4.04,1.449-6.589,4.431-7.288,8.923c-0.435,2.797,0.443,5.587,0.933,6.714c1.935,4.455,6.422,6.98,10.981,6.312 c0.227-0.033,0.557,0.069,0.752,0.233c0.241,7.12,3.698,13.417,8.884,17.014c8.321,5.772,19.027,3.994,25.781-3.921 c2.894,2.96,6.338,4.398,10.384,3.876c4.023-0.519,7.147-2.739,9.426-6.349c1.053,0.283,2.051,0.691,3.083,0.804 c4.042,0.442,7.297-1.184,9.732-4.8c0.083-0.124,0.203-0.219,0.306-0.328c0.348-0.798,0.696-1.596,1.044-2.394 c0.155-1.211,0.429-2.423,0.443-3.632C90.742,60.508,89.411,57.54,87.234,55.551z"/><path fill="#fff" d="M26.899 38h-10.03c-.276 0-.5-.224-.5-.5s.224-.5.5-.5h10.03c.276 0 .5.224.5.5S27.176 38 26.899 38zM30.28 37.5c0-.276-.224-.5-.5-.5h-1.446c-.276 0-.5.224-.5.5s.224.5.5.5h1.446C30.057 38 30.28 37.776 30.28 37.5zM34.335 37.5c0-.276-.224-.5-.5-.5h-2.546c-.276 0-.5.224-.5.5s.224.5.5.5h2.546C34.112 38 34.335 37.776 34.335 37.5zM34.335 39.5c0-.276-.224-.5-.5-.5h-9.616c-.276 0-.5.224-.5.5s.224.5.5.5h9.616C34.112 40 34.335 39.776 34.335 39.5zM22.987 39.5c0-.276-.224-.5-.5-.5h-.58c-.276 0-.5.224-.5.5s.224.5.5.5h.58C22.763 40 22.987 39.776 22.987 39.5zM20.611 39.5c0-.276-.224-.5-.5-.5h-1.457c-.276 0-.5.224-.5.5s.224.5.5.5h1.457C20.387 40 20.611 39.776 20.611 39.5zM29.746 35.5c0-.276-.224-.5-.5-.5h-5.027c-.276 0-.5.224-.5.5s.224.5.5.5h5.027C29.523 36 29.746 35.776 29.746 35.5zM29.746 33.5c0-.276-.224-.5-.5-.5h-1.257c-.276 0-.5.224-.5.5s.224.5.5.5h1.257C29.523 34 29.746 33.776 29.746 33.5zM26.477 41.5c0-.276-.224-.5-.5-.5h-1.758c-.276 0-.5.224-.5.5s.224.5.5.5h1.758C26.254 42 26.477 41.776 26.477 41.5zM84.744 49h-10.03c-.276 0-.5-.224-.5-.5s.224-.5.5-.5h10.031c.276 0 .5.224.5.5S85.021 49 84.744 49zM88.125 48.5c0-.276-.224-.5-.5-.5h-1.446c-.276 0-.5.224-.5.5s.224.5.5.5h1.446C87.902 49 88.125 48.776 88.125 48.5zM92.18 48.5c0-.276-.224-.5-.5-.5h-2.546c-.276 0-.5.224-.5.5s.224.5.5.5h2.546C91.956 49 92.18 48.776 92.18 48.5zM90.154 44.5c0-.276-.224-.5-.5-.5h-9.616c-.276 0-.5.224-.5.5s.224.5.5.5h9.616C89.93 45 90.154 44.776 90.154 44.5zM78.806 44.5c0-.276-.224-.5-.5-.5h-.58c-.276 0-.5.224-.5.5s.224.5.5.5h.58C78.583 45 78.806 44.776 78.806 44.5zM76.429 44.5c0-.276-.224-.5-.5-.5h-1.456c-.276 0-.5.224-.5.5s.224.5.5.5h1.456C76.206 45 76.429 44.776 76.429 44.5zM87.591 46.5c0-.276-.224-.5-.5-.5h-5.027c-.276 0-.5.224-.5.5s.224.5.5.5h5.027C87.367 47 87.591 46.776 87.591 46.5zM87.591 44.5c0-.276-.224-.5-.5-.5h-1.257c-.276 0-.5.224-.5.5s.224.5.5.5h1.257C87.367 45 87.591 44.776 87.591 44.5zM81.108 46.5c0-.276-.224-.5-.5-.5H78.85c-.276 0-.5.224-.5.5s.224.5.5.5h1.758C80.885 47 81.108 46.776 81.108 46.5z"/><path fill="#ea5167" d="M50,74.3c-5.833-0.001-13.651-0.135-16.649-0.38c-3.994-0.34-4.394-4.195-4.58-10.504 l-0.012-0.373c-0.017-0.563-0.034-1.121-0.06-1.67c0.001-2.964,0.307-6.411,0.799-8.963c0.819-3.34,2.472-3.39,6.463-3.512 c0.601-0.018,1.232-0.037,1.886-0.072c0,0,0.37-0.005,0.721-0.012c1.562-0.034,5.213-0.114,11.294-0.114l0.281,0.001 c6.015,0,9.646,0.078,11.197,0.111c0,0,0.78,0.017,0.882,0.017c0.581,0.032,1.212,0.052,1.814,0.069 c3.992,0.122,5.645,0.172,6.478,3.574c0.481,2.507,0.785,5.952,0.785,8.96c-0.025,0.54-0.044,1.146-0.063,1.76l-0.007,0.222 c-0.186,6.31-0.586,10.165-4.583,10.504C63.658,74.165,55.839,74.299,50,74.3L50,74.3z"/><path fill="#472b29" d="M49.86,49.4l0.284,0.001c6.046,0,9.666,0.078,11.212,0.112l0.057,0.001 c0.382,0.008,0.636,0.013,0.769,0.014c0.613,0.033,1.238,0.052,1.833,0.07c4.12,0.125,5.131,0.26,5.812,3.008 c0.476,2.487,0.771,5.849,0.773,8.794c-0.026,0.571-0.045,1.175-0.064,1.787l-0.006,0.207c-0.19,6.468-0.641,9.546-3.94,9.826 C63.628,73.465,55.831,73.599,50,73.6c-5.828-0.001-13.624-0.134-16.588-0.378c-3.301-0.28-3.751-3.358-3.942-9.829l-0.011-0.345 c-0.017-0.564-0.034-1.124-0.059-1.674c0.002-2.933,0.3-6.297,0.779-8.797c0.674-2.72,1.685-2.854,5.805-2.979 c0.599-0.018,1.226-0.038,1.878-0.072c0.115-0.002,0.412-0.006,0.724-0.013C39.988,49.483,43.713,49.4,49.86,49.4 M49.863,48 c-6.092,0-9.748,0.08-11.309,0.114c-0.379,0.008-0.737,0.013-0.743,0.013c-0.649,0.035-1.275,0.054-1.871,0.072 c-3.984,0.121-6.177,0.188-7.13,4.078C28.311,54.871,28,58.379,28,61.406c0.031,0.666,0.049,1.346,0.071,2.031 c0.163,5.535,0.317,10.763,5.223,11.18C36.294,74.864,44.14,74.999,49.999,75c5.86-0.001,13.705-0.136,16.706-0.384 c4.907-0.417,5.061-5.645,5.224-11.18c0.021-0.685,0.041-1.365,0.071-2.003c0-3.055-0.312-6.563-0.805-9.126 c-0.96-3.92-3.155-3.987-7.137-4.108c-0.596-0.018-1.221-0.037-1.835-0.071c-0.112,0-0.369-0.005-0.779-0.014 c-1.549-0.033-5.164-0.113-11.3-0.113C50.099,48.001,49.863,48,49.863,48L49.863,48z"/><path fill="#fff" d="M49 69.947h-2.614v-1.737c-.327.474-1.144 1.736-2.887 1.737-.87 0-2.341-.632-2.341-2.526V56.053h2.614v10.895c0 .291.024.798.98.789 1.063-.01 1.634-1.263 1.634-1.263V56.053H49V69.947zM40 54.789L37.333 54.789 37.333 69.947 34.667 69.947 34.667 54.789 32 54.789 32 52.263 40 52.263zM58.842 59.286c0-1.09-.357-1.829-.813-2.386-.452-.557-1.119-.848-1.967-.848-.425 0-.848.114-1.272.322-.425.205-.876.562-1.176 1.017v-5.128H51v17.684h2.614v-1.737c.505.57 1.24 1.751 2.614 1.737 1.961 0 2.614-1.737 2.614-3.158V59.286zM56.228 66.187c0 .697-.586 1.234-1.307 1.234s-1.295-.268-1.307-.632v-7.503c.012-.635.586-1.263 1.307-1.263s1.307.555 1.307 1.819V66.187zM68 63.632v-3.936c0-1.261-.658-3.643-3.947-3.643-3.125 0-3.943 2.501-3.943 3.643v5.947c0 1.292.366 2.29 1.063 3.021.704.731 1.679 1.084 2.93 1.084 1.366 0 2.408-.326 3.076-1.029C67.884 68.045 68 67.023 68 65.643v-.748h-2.632v.632c0 .762-.078 1.347-.262 1.555-.182.232-.52.335-1.054.34-.483.005-.85-.124-1.032-.414-.186-.264-.284-.719-.284-1.422v-1.953H68zM62.737 59.842c.012-.678.589-1.263 1.316-1.263.726 0 1.316.486 1.316 1.263v1.263h-2.632V59.842z"/><path fill="#36404d" d="M43.684 27L41.158 34.074 38.632 27 36.105 27 39.895 37.611 39.895 44.684 42.421 44.684 42.421 37.611 46.211 27zM60.105 31.421v9.789c0 0-.552 1.253-1.579 1.263-.925.009-.947-.499-.947-.789V31.421h-2.526v10.737c0 1.895 1.421 2.526 2.262 2.526 1.685 0 2.475-1.263 2.79-1.737v1.579h2.526V31.421H60.105z"/><g><path fill="#36404d" d="M49.684,44.684c-2.089,0-3.789-1.736-3.789-3.869v-5.684c0-2.132,1.7-3.869,3.789-3.869 c2.089,0,3.789,1.736,3.789,3.869v5.684C53.474,42.949,51.773,44.684,49.684,44.684z M49.684,33.632 c-0.697,0-1.263,0.625-1.263,1.395v5.895c0,0.769,0.566,1.395,1.263,1.395c0.697,0,1.263-0.625,1.263-1.395v-5.895 C50.947,34.257,50.381,33.632,49.684,33.632z"/></g><g><path fill="#fdfcef" d="M80.178,28.287c1.883,0,3.517,0,3.54,0c2.11,0,3.821-1.674,3.821-3.739 c0-1.802-1.302-3.305-3.035-3.66c0.02-0.158,0.034-0.317,0.034-0.48c0-2.139-1.772-3.873-3.957-3.873 c-1.29,0-2.433,0.607-3.155,1.543c-0.185-2.381-2.358-4.218-4.9-3.913c-1.859,0.223-3.397,1.629-3.739,3.431 c-0.11,0.578-0.098,1.139,0.011,1.665c-0.498-0.525-1.208-0.856-1.998-0.856c-1.446,0-2.627,1.102-2.72,2.494 c-0.657-0.142-1.371-0.133-2.123,0.143c-1.438,0.528-2.462,1.853-2.522,3.356c-0.085,2.133,1.657,3.889,3.818,3.889 c0.164,0,0.741,0,0.874,0h7.934 M73.701,28.287h0.36"/><path fill="#472b29" d="M83.718,28.788h-3.54c-0.276,0-0.5-0.224-0.5-0.5s0.224-0.5,0.5-0.5h3.54 c1.831,0,3.321-1.453,3.321-3.239c0-1.524-1.108-2.858-2.636-3.17c-0.256-0.053-0.429-0.294-0.396-0.554 c0.018-0.137,0.03-0.275,0.03-0.417c0-1.86-1.551-3.373-3.457-3.373c-1.092,0-2.098,0.491-2.76,1.349 c-0.126,0.164-0.341,0.231-0.539,0.174c-0.198-0.06-0.339-0.234-0.355-0.44c-0.079-1.02-0.565-1.944-1.369-2.604 c-0.829-0.68-1.885-0.979-2.973-0.853c-1.646,0.197-3.006,1.442-3.307,3.027c-0.094,0.495-0.091,0.99,0.009,1.472 c0.045,0.219-0.06,0.441-0.258,0.545c-0.197,0.102-0.44,0.063-0.594-0.1c-0.428-0.451-1.009-0.7-1.635-0.7 c-1.169,0-2.145,0.891-2.221,2.027c-0.01,0.146-0.082,0.278-0.198,0.366c-0.116,0.087-0.264,0.12-0.406,0.089 c-0.639-0.138-1.243-0.098-1.846,0.125c-1.262,0.463-2.144,1.631-2.195,2.905c-0.035,0.876,0.283,1.709,0.895,2.346 c0.635,0.66,1.496,1.024,2.423,1.024h8.807c0.276,0,0.5,0.224,0.5,0.5s-0.224,0.5-0.5,0.5h-8.807 c-1.185,0-2.331-0.485-3.144-1.331c-0.803-0.836-1.219-1.929-1.173-3.078c0.067-1.675,1.212-3.204,2.849-3.806 c0.61-0.225,1.24-0.304,1.88-0.244c0.344-1.396,1.629-2.424,3.135-2.424c0.493,0,0.977,0.113,1.414,0.323 c0.009-0.242,0.037-0.484,0.083-0.727c0.381-2.009,2.096-3.585,4.17-3.833c1.365-0.167,2.685,0.218,3.726,1.071 c0.748,0.613,1.278,1.409,1.546,2.302c0.791-0.648,1.786-1.007,2.842-1.007c2.458,0,4.457,1.962,4.457,4.373 c0,0.034,0,0.068-0.001,0.103c1.764,0.555,3.003,2.188,3.003,4.038C88.039,26.886,86.101,28.788,83.718,28.788z M74.061,28.788 h-0.36c-0.276,0-0.5-0.224-0.5-0.5s0.224-0.5,0.5-0.5h0.36c0.276,0,0.5,0.224,0.5,0.5S74.337,28.788,74.061,28.788z"/><g><path fill="#472b29" d="M82.011,22.984c-0.018,0-0.036-0.002-0.055-0.006c-0.135-0.03-0.22-0.164-0.189-0.299 c0.037-0.164,0.094-0.325,0.17-0.479c0.604-1.224,2.272-1.677,3.722-1.007c0.125,0.058,0.18,0.206,0.122,0.331 c-0.058,0.126-0.207,0.179-0.332,0.122c-1.201-0.556-2.577-0.208-3.063,0.774c-0.058,0.118-0.102,0.242-0.13,0.367 C82.229,22.905,82.126,22.984,82.011,22.984z"/></g><g><path fill="#472b29" d="M76.852,28.788h-1.107c-0.276,0-0.5-0.224-0.5-0.5s0.224-0.5,0.5-0.5h1.107 c0.276,0,0.5,0.224,0.5,0.5S77.129,28.788,76.852,28.788z"/></g></g><g><path fill="#fdfcef" d="M25.337,80.423c0,0,11.691,0,11.762,0c2.7,0,4.888-2.189,4.888-4.889 c0-2.355-1.666-4.321-3.884-4.784c0.026-0.206,0.043-0.415,0.043-0.628c0-2.796-2.267-5.063-5.063-5.063 c-1.651,0-3.113,0.794-4.037,2.017c-0.236-3.113-3.017-5.514-6.27-5.116c-2.379,0.291-4.346,2.13-4.784,4.486 c-0.14,0.756-0.126,1.489,0.014,2.177c-0.638-0.687-1.546-1.119-2.557-1.119c-1.85,0-3.361,1.441-3.48,3.261 c-0.84-0.186-1.754-0.174-2.717,0.188c-1.84,0.691-3.15,2.423-3.227,4.387c-0.109,2.789,2.12,5.085,4.885,5.085 c0.21,0,0.948,0,1.118,0h10.151"/><path fill="#472b29" d="M37.099,80.923H25.337c-0.276,0-0.5-0.224-0.5-0.5s0.224-0.5,0.5-0.5h11.762 c2.42,0,4.389-1.969,4.389-4.389c0-2.066-1.466-3.873-3.486-4.295c-0.255-0.053-0.426-0.293-0.394-0.552 c0.023-0.186,0.039-0.374,0.039-0.565c0-2.517-2.047-4.563-4.562-4.563c-1.438,0-2.765,0.663-3.638,1.818 c-0.125,0.166-0.338,0.237-0.54,0.178c-0.199-0.059-0.342-0.234-0.357-0.441c-0.104-1.377-0.779-2.671-1.85-3.549 c-1.083-0.888-2.456-1.282-3.86-1.109c-2.166,0.266-3.956,1.943-4.353,4.081c-0.124,0.667-0.12,1.335,0.013,1.986 c0.044,0.22-0.062,0.442-0.262,0.544c-0.2,0.104-0.443,0.06-0.595-0.104c-0.575-0.618-1.353-0.959-2.19-0.959 c-1.569,0-2.878,1.228-2.981,2.794c-0.01,0.146-0.082,0.279-0.199,0.366c-0.117,0.089-0.268,0.12-0.408,0.089 c-0.841-0.185-1.637-0.132-2.433,0.167c-1.669,0.627-2.835,2.209-2.903,3.938c-0.047,1.207,0.387,2.35,1.221,3.218 c0.835,0.869,1.959,1.348,3.164,1.348h11.269c0.276,0,0.5,0.224,0.5,0.5s-0.224,0.5-0.5,0.5H10.912 c-1.479,0-2.858-0.588-3.884-1.654c-1.025-1.066-1.558-2.469-1.5-3.95c0.083-2.126,1.51-4.069,3.55-4.835 c0.8-0.301,1.626-0.398,2.468-0.299c0.377-1.822,1.998-3.182,3.905-3.182c0.684,0,1.354,0.18,1.944,0.51 c0-0.386,0.035-0.772,0.106-1.159c0.477-2.562,2.621-4.573,5.215-4.891c1.679-0.205,3.32,0.266,4.616,1.328 c1.003,0.823,1.716,1.951,2.038,3.193c1.012-0.916,2.319-1.426,3.714-1.426c3.067,0,5.562,2.496,5.562,5.563 c0,0.083-0.002,0.166-0.007,0.248c2.254,0.673,3.848,2.776,3.848,5.164C42.488,78.507,40.071,80.923,37.099,80.923z"/><path fill="#fdfcef" d="M22.504,69.655c-1.808-0.119-3.365,1.13-3.476,2.789c-0.014,0.206-0.005,0.409,0.025,0.606 c-0.349-0.394-0.865-0.661-1.458-0.7c-1.085-0.071-2.022,0.645-2.158,1.62c-0.197-0.054-0.403-0.09-0.616-0.104 c-1.582-0.104-2.944,0.989-3.042,2.441"/><path fill="#472b29" d="M11.78,76.556c-0.006,0-0.012,0-0.017-0.001c-0.138-0.009-0.242-0.128-0.233-0.266 c0.107-1.587,1.588-2.789,3.308-2.674c0.137,0.009,0.273,0.026,0.409,0.053c0.274-0.968,1.256-1.645,2.366-1.567 c0.425,0.027,0.823,0.159,1.164,0.382c0-0.019,0.002-0.037,0.003-0.056c0.12-1.795,1.787-3.16,3.742-3.021 c0.138,0.009,0.242,0.128,0.233,0.266c-0.009,0.138-0.124,0.255-0.266,0.232c-1.651-0.105-3.108,1.037-3.21,2.557 c-0.012,0.184-0.004,0.37,0.023,0.553c0.017,0.109-0.041,0.217-0.141,0.264s-0.219,0.022-0.293-0.061 c-0.323-0.365-0.78-0.584-1.287-0.617c-0.951-0.034-1.775,0.556-1.894,1.404c-0.01,0.071-0.05,0.135-0.11,0.175 c-0.06,0.039-0.133,0.051-0.204,0.032c-0.187-0.051-0.377-0.083-0.567-0.097c-1.44-0.092-2.687,0.896-2.775,2.209 C12.02,76.455,11.91,76.556,11.78,76.556z"/><g><path fill="#fdfcef" d="M39.079,71.323c-1.699-0.801-3.664-0.234-4.389,1.267c-0.09,0.186-0.157,0.379-0.201,0.574"/><path fill="#472b29" d="M34.489,73.414c-0.018,0-0.037-0.002-0.056-0.006c-0.134-0.031-0.219-0.165-0.188-0.3 c0.049-0.217,0.123-0.428,0.219-0.627c0.783-1.621,2.902-2.239,4.721-1.385c0.125,0.06,0.179,0.208,0.12,0.333 c-0.059,0.126-0.209,0.176-0.333,0.12c-1.574-0.744-3.394-0.227-4.058,1.149c-0.08,0.165-0.141,0.34-0.182,0.521 C34.706,73.336,34.603,73.414,34.489,73.414z"/></g></g></svg>